/* XPM */
static char * C:\Users\Akinori Sasada\Desktop\42\42cursus\solong\assets\collectible_1_xpm[] = {
"40 40 174 2",
"  	c #9D7855",
". 	c #F3CF20",
"+ 	c #FFDB00",
"@ 	c #B6934C",
"# 	c #BC994A",
"$ 	c #9E7955",
"% 	c #AF894E",
"& 	c #B7904B",
"* 	c #BE9747",
"= 	c #865F3D",
"- 	c #8D6827",
"; 	c #E8C517",
"> 	c #CCA942",
", 	c #F0CC24",
"' 	c #C6A145",
") 	c #DAB335",
"! 	c #E1B62C",
"~ 	c #F0C313",
"{ 	c #F1C40F",
"] 	c #CBA23B",
"^ 	c #B48F48",
"/ 	c #F1CE22",
"( 	c #B68F4B",
"_ 	c #DFB42E",
": 	c #AA8651",
"< 	c #E7C42E",
"[ 	c #D7B43B",
"} 	c #A98351",
"| 	c #DBB132",
"1 	c #BB9349",
"2 	c #EDC01A",
"3 	c #F1C30F",
"4 	c #F2B910",
"5 	c #F2AE11",
"6 	c #F3A611",
"7 	c #F39F12",
"8 	c #F39C12",
"9 	c #C59D43",
"0 	c #F0C411",
"a 	c #F1C20F",
"b 	c #F2B011",
"c 	c #F3A212",
"d 	c #F2AB11",
"e 	c #F2B710",
"f 	c #DEBB36",
"g 	c #F2AD11",
"h 	c #F2A911",
"i 	c #F8D418",
"j 	c #F1BF0F",
"k 	c #F2B110",
"l 	c #F39E12",
"m 	c #F1A314",
"n 	c #EDAF17",
"o 	c #F0BD12",
"p 	c #EEB216",
"q 	c #F1C210",
"r 	c #F1BE0F",
"s 	c #F1C10F",
"t 	c #EE9318",
"u 	c #E67E22",
"v 	c #E9931E",
"w 	c #F2B810",
"x 	c #F3D01F",
"y 	c #AD874F",
"z 	c #F19914",
"A 	c #F0B413",
"B 	c #EE9219",
"C 	c #E9851F",
"D 	c #F3A112",
"E 	c #CCA33E",
"F 	c #F29B13",
"G 	c #F0C312",
"H 	c #F1BC10",
"I 	c #F1BD10",
"J 	c #F3A012",
"K 	c #F2AF11",
"L 	c #EEB614",
"M 	c #EA9B1C",
"N 	c #EA9C1C",
"O 	c #EBA51A",
"P 	c #F2A811",
"Q 	c #D6B33C",
"R 	c #E68221",
"S 	c #EFB814",
"T 	c #E7C22D",
"U 	c #A07C54",
"V 	c #BF9747",
"W 	c #F19915",
"X 	c #EB8B1D",
"Y 	c #EA9E1C",
"Z 	c #F3C80D",
"` 	c #CBA842",
" .	c #C19546",
"..	c #EEA217",
"+.	c #F1C50F",
"@.	c #DBB437",
"#.	c #CA9F41",
"$.	c #F0BC12",
"%.	c #BE9047",
"&.	c #B3904D",
"*.	c #B5814C",
"=.	c #ECA71A",
"-.	c #AA7D50",
";.	c #F1BB10",
">.	c #F3A411",
",.	c #EFBB13",
"'.	c #E9881F",
").	c #EDAF1C",
"!.	c #EEB415",
"~.	c #E78721",
"{.	c #DD9832",
"].	c #F2B210",
"^.	c #EDAE18",
"/.	c #E9921E",
"(.	c #EB8C1C",
"_.	c #C38745",
":.	c #E88620",
"<.	c #EE9419",
"[.	c #A37A53",
"}.	c #F0A417",
"|.	c #EFA615",
"1.	c #EF9617",
"2.	c #F19B14",
"3.	c #F0A418",
"4.	c #96714E",
"5.	c #C98016",
"6.	c #D48E3A",
"7.	c #E1BE33",
"8.	c #825B38",
"9.	c #845219",
"0.	c #EF9D12",
"a.	c #F1C00F",
"b.	c #F2AC11",
"c.	c #F09F19",
"d.	c #BB934A",
"e.	c #C9873B",
"f.	c #F2A711",
"g.	c #F09616",
"h.	c #EB8A1D",
"i.	c #CB8A40",
"j.	c #9E7855",
"k.	c #E3952C",
"l.	c #A97C51",
"m.	c #EB9822",
"n.	c #AF7F4E",
"o.	c #ED991F",
"p.	c #AD7E4F",
"q.	c #EA9823",
"r.	c #A57B52",
"s.	c #DD9232",
"t.	c #C7A445",
"u.	c #C08646",
"v.	c #F2B111",
"w.	c #F6D21B",
"x.	c #FCD80C",
"y.	c #C58844",
"z.	c #E69629",
"A.	c #F3A412",
"B.	c #F2AA11",
"C.	c #E89E27",
"D.	c #CC9340",
"E.	c #A07954",
"F.	c #ECC829",
"G.	c #C98941",
"H.	c #DA9135",
"I.	c #E69628",
"J.	c #F09B1A",
"K.	c #F29C13",
"L.	c #F29C12",
"M.	c #EF9912",
"N.	c #E59524",
"O.	c #B88B4B",
"P.	c #ECC929",
"Q.	c #936E4B",
"      . + + @           # + + # $ % & * * & % $ = - ; + >     @ + + ,           ",
"      + + +               ' ) ! ~ { { { { { { ~ ! ] ^ >       > + + >           ",
"      @ + + /         ( _ { { { { { { { { { { { { { { _ (     : < < :           ",
"        [ + < :   } | { { { { { { { { { { { { { { { { { { | }   : :             ",
"        > + < : 1 2 { { { { 3 4 5 6 7 8 8 7 6 5 4 3 { { { { 2 1                 ",
"          > : 9 0 { { { a b 7 8 c d c 8 8 c d c 8 7 b a { { { 0 9             @ ",
"#           9 { { { { e 7 8 8 8 d { d 8 8 d { d 8 8 8 7 e { { { { 9       f f + ",
"+ #       1 0 { { 3 g 8 8 8 8 8 d { d 8 8 d { d 8 8 8 8 8 g 3 { { 0 1   f + + + ",
"+ #     } 2 { { 3 h 8 8 8 8 8 8 d { d 8 8 d { d 8 8 8 8 8 8 h 3 { { 2 } , + i , ",
"#       | { { { g 8 8 d { { { { { { { { { { { { j k l 8 8 8 8 g { { { |   ,     ",
"      & { { { e 8 8 8 m n o { { o n n n n n n p q { r 7 8 8 8 8 e { { { &       ",
":     _ { { s 7 8 8 8 t u n { { n u u u u u u u v { { w 8 8 8 8 7 s { { _       ",
"x : y { { { b 8 8 8 8 z t A { { A t t t t t t B C { { { D 8 8 8 8 b { { { y     ",
"+ > E { { 3 7 8 8 8 8 8 8 e { { e 8 8 8 8 8 8 8 F { { { h 8 8 8 8 7 3 { { E     ",
">   ! { { 4 8 8 8 8 8 8 8 e { { e 8 8 8 8 8 8 8 D { { { h 8 8 8 8 8 4 { { !     ",
"  $ G { { 5 8 8 8 8 8 8 8 e { { H d d d d d d g I { { 3 J 8 8 8 8 8 5 { { G $   ",
"  % { { { 6 8 8 8 8 8 8 8 e { { { { { { { { { { { { { K 8 8 8 8 8 8 6 { { { %   ",
"@ & { { { 7 8 8 8 8 8 8 8 e { { L M M M M M M N O o s P 8 8 8 8 8 8 7 { { { & Q ",
"  * { { { 8 8 8 8 8 8 8 8 e { { n u u u u u u u u R S { K 8 8 8 8 8 8 { { { T + ",
"U V { { { 8 8 8 8 8 8 8 8 e { { e 8 8 8 8 8 8 8 W X Y { { 6 8 8 8 8 8 { { Z + + ",
"`  .{ { { 7 8 8 8 8 8 8 8 e { { e 8 8 8 8 8 8 8 8 8 ..{ { w 8 8 8 8 7 { { +.@.+ ",
"+ #.{ { { 6 8 8 8 8 8 8 8 e { { e 8 8 8 8 8 8 8 8 8 d { { $.8 8 8 8 6 { { { %.&.",
"&.*.3 { { 5 8 8 8 8 8 8 8 e { { e 8 8 8 8 8 8 8 8 8 e { { =.8 8 8 8 5 { { 3 *.  ",
"  -.;.{ { 4 8 8 8 8 8 8 8 e { { e 8 8 8 8 8 8 8 >.e { { ,.'.8 8 8 8 4 { { ;.-.  ",
"    ).{ { 3 J 8 8 8 8 d { { { { { { { { { { { { { { { !.~.B 8 8 8 J 3 { { ).    ",
"    {.{ { { ].8 8 8 8 m n n n n L { L n n L { L ^.=./.u (.8 8 8 8 ].{ { { {.    ",
"    _.4 { { a J 8 8 8 t u u u u M { M u u M { M u u :.<.8 8 8 8 J a { { 4 _.    ",
"    [.}.{ { { w 8 8 8 z t t t t |.{ |.t t |.{ |.1.2.8 8 8 8 8 8 w { { { 3.[.    ",
"    4.5.e { { { K 8 8 8 8 8 8 8 d { d 8 8 d { d 8 8 8 8 8 8 8 K { { { e 6.&.7., ",
"    8.9.0.a.{ { { b.8 8 8 8 8 8 t u t 8 8 t u t 8 8 8 8 8 8 b.{ { { a.c.d.+ + + ",
"@     8.e.f.3 { { { K 8 8 8 8 8 g.h.g.8 8 g.h.g.8 8 8 8 8 K { { { 3 f.i.U ` + + ",
"+ .     j.k.b.{ { { { w J 8 8 8 8 8 8 8 8 8 8 8 8 8 8 J w { { { { b.k.j.  U &.@ ",
"+ + ,     l.m.b.3 { { { a ].J 8 8 8 8 8 8 8 8 8 8 J ].a { { { 3 b.m.l.          ",
". + @       n.o.f.s { { { { 3 4 5 6 7 8 8 7 6 5 4 3 { { { { s f.o.n.            ",
"  @     Q Q   p.q.J e { { { { { { { { { { { { { { { { { { e J q.p.              ",
"      Q + + Q   r.s.8 6 4 { { { { { { { { { { { { { { 4 6 8 s.r.    : >         ",
"      t.+ + ,       u.m.8 c v.;.3 { { { { { { 3 ;.v.c 8 m.u.      : < + w.      ",
"    @ + + x.        , + y.z.8 8 8 A.f.B.B.f.A.8 8 8 C.D.E.        : F.+ + i     ",
"      @ ,         , + + +   p.G.H.I.J.K.L.M.N.H.G.O.< < /           : P.+ + Q   ",
"                    x.+ + @             Q.Q.      > + + + x.,           Q Q     "};
