/* XPM */
static char * C:\Users\Akinori Sasada\Desktop\42\42cursus\solong\assets\collectible_xpm[] = {
"40 40 141 2",
"  	c #9D7855",
". 	c #9E7955",
"+ 	c #AF894E",
"@ 	c #B7904B",
"# 	c #BE9747",
"$ 	c #865F3D",
"% 	c #774E29",
"& 	c #7F5734",
"* 	c #997451",
"= 	c #AD874F",
"- 	c #CCA33E",
"; 	c #E1B62C",
"> 	c #F0C313",
", 	c #F1C40F",
"' 	c #CBA23B",
") 	c #AA844B",
"! 	c #B68F4B",
"~ 	c #DFB42E",
"{ 	c #A98351",
"] 	c #DBB132",
"^ 	c #BB9349",
"/ 	c #EDC01A",
"( 	c #F1C30F",
"_ 	c #F2B910",
": 	c #F2AE11",
"< 	c #F3A611",
"[ 	c #F39F12",
"} 	c #F39C12",
"| 	c #C59D43",
"1 	c #F0C411",
"2 	c #F1C20F",
"3 	c #F2B011",
"4 	c #F3A212",
"5 	c #F2AB11",
"6 	c #F2B710",
"7 	c #F2AD11",
"8 	c #F2A911",
"9 	c #F1BF0F",
"0 	c #F2B110",
"a 	c #F39E12",
"b 	c #F1A314",
"c 	c #EDAF17",
"d 	c #F0BD12",
"e 	c #EEB216",
"f 	c #F1C210",
"g 	c #F1BE0F",
"h 	c #F1C10F",
"i 	c #EE9318",
"j 	c #E67E22",
"k 	c #E9931E",
"l 	c #F2B810",
"m 	c #F19914",
"n 	c #F0B413",
"o 	c #EE9219",
"p 	c #E9851F",
"q 	c #F3A112",
"r 	c #F29B13",
"s 	c #F0C312",
"t 	c #F1BC10",
"u 	c #F1BD10",
"v 	c #F3A012",
"w 	c #F2AF11",
"x 	c #EEB614",
"y 	c #EA9B1C",
"z 	c #EA9C1C",
"A 	c #EBA51A",
"B 	c #F2A811",
"C 	c #E68221",
"D 	c #EFB814",
"E 	c #BF9747",
"F 	c #F19915",
"G 	c #EB8B1D",
"H 	c #EA9E1C",
"I 	c #BF9346",
"J 	c #EEA217",
"K 	c #BC8E48",
"L 	c #F0BC12",
"M 	c #B5814C",
"N 	c #ECA71A",
"O 	c #AA7D50",
"P 	c #F1BB10",
"Q 	c #F3A411",
"R 	c #EFBB13",
"S 	c #E9881F",
"T 	c #EDAF1C",
"U 	c #EEB415",
"V 	c #E78721",
"W 	c #DD9832",
"X 	c #F2B210",
"Y 	c #EDAE18",
"Z 	c #E9921E",
"` 	c #EB8C1C",
" .	c #C38745",
"..	c #E88620",
"+.	c #EE9419",
"@.	c #A37A53",
"#.	c #F0A417",
"$.	c #EFA615",
"%.	c #EF9617",
"&.	c #F19B14",
"*.	c #F0A418",
"=.	c #96714E",
"-.	c #C98016",
";.	c #D48E3A",
">.	c #825B38",
",.	c #845219",
"'.	c #EF9D12",
").	c #F1C00F",
"!.	c #F2AC11",
"~.	c #F09F19",
"{.	c #A97C51",
"].	c #C9873B",
"^.	c #F2A711",
"/.	c #F09616",
"(.	c #EB8A1D",
"_.	c #CB8A40",
":.	c #9E7855",
"<.	c #E3952C",
"[.	c #EB9822",
"}.	c #AF7F4E",
"|.	c #ED991F",
"1.	c #AD7E4F",
"2.	c #EA9823",
"3.	c #A57B52",
"4.	c #DD9232",
"5.	c #C08646",
"6.	c #F2B111",
"7.	c #A07954",
"8.	c #C58844",
"9.	c #E69629",
"0.	c #F3A412",
"a.	c #F2AA11",
"b.	c #C98941",
"c.	c #DA9135",
"d.	c #E69628",
"e.	c #F09B1A",
"f.	c #F29C13",
"g.	c #F29C12",
"h.	c #EF9912",
"i.	c #E59524",
"j.	c #936E4B",
"                                . + @ # # @ + . $ % & *                         ",
"                          = - ; > , , , , , , > ; ' )                           ",
"                      ! ~ , , , , , , , , , , , , , , ~ !                       ",
"                  { ] , , , , , , , , , , , , , , , , , , ] {                   ",
"                ^ / , , , , ( _ : < [ } } [ < : _ ( , , , , / ^                 ",
"              | 1 , , , 2 3 [ } 4 5 4 } } 4 5 4 } [ 3 2 , , , 1 |               ",
"            | , , , , 6 [ } } } 5 , 5 } } 5 , 5 } } } [ 6 , , , , |             ",
"          ^ 1 , , ( 7 } } } } } 5 , 5 } } 5 , 5 } } } } } 7 ( , , 1 ^           ",
"        { / , , ( 8 } } } } } } 5 , 5 } } 5 , 5 } } } } } } 8 ( , , / {         ",
"        ] , , , 7 } } 5 , , , , , , , , , , , , 9 0 a } } } } 7 , , , ]         ",
"      @ , , , 6 } } } b c d , , d c c c c c c e f , g [ } } } } 6 , , , @       ",
"      ~ , , h [ } } } i j c , , c j j j j j j j k , , l } } } } [ h , , ~       ",
"    = , , , 3 } } } } m i n , , n i i i i i i o p , , , q } } } } 3 , , , =     ",
"    - , , ( [ } } } } } } 6 , , 6 } } } } } } } r , , , 8 } } } } [ ( , , -     ",
"    ; , , _ } } } } } } } 6 , , 6 } } } } } } } q , , , 8 } } } } } _ , , ;     ",
"  . s , , : } } } } } } } 6 , , t 5 5 5 5 5 5 7 u , , ( v } } } } } : , , s .   ",
"  + , , , < } } } } } } } 6 , , , , , , , , , , , , , w } } } } } } < , , , +   ",
"  @ , , , [ } } } } } } } 6 , , x y y y y y y z A d h B } } } } } } [ , , , @   ",
"  # , , , } } } } } } } } 6 , , c j j j j j j j j C D , w } } } } } } , , , #   ",
"  E , , , } } } } } } } } 6 , , 6 } } } } } } } F G H , , < } } } } } , , , E   ",
"  I , , , [ } } } } } } } 6 , , 6 } } } } } } } } } J , , l } } } } [ , , , I   ",
"  K , , , < } } } } } } } 6 , , 6 } } } } } } } } } 5 , , L } } } } < , , , K   ",
"  M ( , , : } } } } } } } 6 , , 6 } } } } } } } } } 6 , , N } } } } : , , ( M   ",
"  O P , , _ } } } } } } } 6 , , 6 } } } } } } } Q 6 , , R S } } } } _ , , P O   ",
"    T , , ( v } } } } 5 , , , , , , , , , , , , , , , U V o } } } v ( , , T     ",
"    W , , , X } } } } b c c c c x , x c c x , x Y N Z j ` } } } } X , , , W     ",
"     ._ , , 2 v } } } i j j j j y , y j j y , y j j ..+.} } } } v 2 , , _  .    ",
"    @.#., , , l } } } m i i i i $., $.i i $., $.%.&.} } } } } } l , , , *.@.    ",
"    =.-.6 , , , w } } } } } } } 5 , 5 } } 5 , 5 } } } } } } } w , , , 6 ;.      ",
"    >.,.'.)., , , !.} } } } } } i j i } } i j i } } } } } } !., , , ).~.{.      ",
"      >.].^.( , , , w } } } } } /.(./.} } /.(./.} } } } } w , , , ( ^._.        ",
"        :.<.!., , , , l v } } } } } } } } } } } } } } v l , , , , !.<.:.        ",
"          {.[.!.( , , , 2 X v } } } } } } } } } } v X 2 , , , ( !.[.{.          ",
"            }.|.^.h , , , , ( _ : < [ } } [ < : _ ( , , , , h ^.|.}.            ",
"              1.2.v 6 , , , , , , , , , , , , , , , , , , 6 v 2.1.              ",
"                3.4.} < _ , , , , , , , , , , , , , , _ < } 4.3.                ",
"                    5.[.} 4 6.P ( , , , , , , ( P 6.4 } [.5.                    ",
"                      7.8.9.} } } 0.^.a.a.^.0.} } } 9.8.7.                      ",
"                            1.b.c.d.e.f.g.h.i.c.b.1.                            ",
"                                        j.j.                                    "};
