/* XPM */
static char * C:\Users\Akinori Sasada\Desktop\42\42cursus\solong\assets\enemy_xpm[] = {
"40 40 406 2",
"  	c #9D7855",
". 	c #865F3D",
"+ 	c #774E29",
"@ 	c #7F5734",
"# 	c #997451",
"$ 	c #CBCDCE",
"% 	c #D2D3D4",
"& 	c #DFE0E1",
"* 	c #BDBEC0",
"= 	c #C3C4C6",
"- 	c #C0C2C3",
"; 	c #C0C1C3",
"> 	c #E6E6E7",
", 	c #C9CACC",
"' 	c #BCBEBF",
") 	c #C8CCCD",
"! 	c #C9CDCE",
"~ 	c #C7CACB",
"{ 	c #BBBCBE",
"] 	c #D0D2D3",
"^ 	c #DDDEDF",
"/ 	c #C2C5C6",
"( 	c #CACDCE",
"_ 	c #E5E7E7",
": 	c #C8C9CB",
"< 	c #BCBEC0",
"[ 	c #C9CCCD",
"} 	c #C7C9CB",
"| 	c #BCBDBF",
"1 	c #D0D0D2",
"2 	c #96714E",
"3 	c #825B38",
"4 	c #DBDCDD",
"5 	c #C3C5C7",
"6 	c #B9BBBD",
"7 	c #B9BBBC",
"8 	c #C2C4C5",
"9 	c #B7BABB",
"0 	c #C4C6C7",
"a 	c #BABCBE",
"b 	c #C6C9CA",
"c 	c #C1C2C4",
"d 	c #BEC0C2",
"e 	c #E5E5E6",
"f 	c #D1D1D2",
"g 	c #9C9C9E",
"h 	c #9D9D9F",
"i 	c #AFB0B2",
"j 	c #BFC0C2",
"k 	c #BDBFC0",
"l 	c #A3A6A5",
"m 	c #A6A7A6",
"n 	c #C3C7C8",
"o 	c #9E9FA0",
"p 	c #C8CBCC",
"q 	c #A1A3A2",
"r 	c #B4B5B6",
"s 	c #A5A6A7",
"t 	c #ADAEAF",
"u 	c #BBBDBF",
"v 	c #A9A9AB",
"w 	c #9E9EA0",
"x 	c #9D9DA0",
"y 	c #D0D0D1",
"z 	c #C5C5C5",
"A 	c #ACACAC",
"B 	c #ADADAD",
"C 	c #ACACAD",
"D 	c #ABABAC",
"E 	c #AFAFB1",
"F 	c #C4C6C8",
"G 	c #ABADAE",
"H 	c #B1B3B3",
"I 	c #B5B7B8",
"J 	c #BFC2C3",
"K 	c #B7B9BA",
"L 	c #ABACAE",
"M 	c #AEAFB1",
"N 	c #BFC1C3",
"O 	c #C0C2C4",
"P 	c #B9BABC",
"Q 	c #CACACB",
"R 	c #D2D2D2",
"S 	c #B6B6B6",
"T 	c #B4B4B4",
"U 	c #B8B8B8",
"V 	c #BCBDBD",
"W 	c #BDC0C1",
"X 	c #C9CECF",
"Y 	c #C2C3C4",
"Z 	c #B9B9B9",
"` 	c #B7B7B7",
" .	c #D7D7D7",
"..	c #D0D0D0",
"+.	c #BFC1C0",
"@.	c #BDC1C2",
"#.	c #BBBEBF",
"$.	c #C0C3C5",
"%.	c #BABBBC",
"&.	c #B5B5B5",
"*.	c #D8D8D8",
"=.	c #AAAAAA",
"-.	c #898989",
";.	c #8A8A8A",
">.	c #98989B",
",.	c #9A999C",
"'.	c #99999C",
").	c #9A999D",
"!.	c #9A9A9D",
"~.	c #9B9A9E",
"{.	c #979799",
"].	c #AFAFAF",
"^.	c #CBCBCC",
"/.	c #9B9B9D",
"(.	c #9E9E9F",
"_.	c #AAAAAB",
":.	c #9D9D9E",
"<.	c #9B9B9C",
"[.	c #D5D5D6",
"}.	c #AFAFB0",
"|.	c #BCBCBC",
"1.	c #BFBEBE",
"2.	c #BBBBBB",
"3.	c #8C8B8B",
"4.	c #8B8B8B",
"5.	c #8C8C8C",
"6.	c #B9B8B8",
"7.	c #8D8C8D",
"8.	c #BEBDBD",
"9.	c #ADADAE",
"0.	c #AEAEB0",
"a.	c #A9A8AA",
"b.	c #DDDDDE",
"c.	c #E3E3E3",
"d.	c #BAB7B6",
"e.	c #B7B3B3",
"f.	c #BAB7B8",
"g.	c #BFC2C2",
"h.	c #8D8D8D",
"i.	c #909091",
"j.	c #C3C6C7",
"k.	c #C4C7C7",
"l.	c #7E7E7E",
"m.	c #686667",
"n.	c #C3C6C6",
"o.	c #C4C6C6",
"p.	c #878687",
"q.	c #949495",
"r.	c #C3C5C6",
"s.	c #BEC2C1",
"t.	c #C5C7C8",
"u.	c #B9B7B6",
"v.	c #BBB9B8",
"w.	c #AEAEAE",
"x.	c #E7E7E7",
"y.	c #B6B9B7",
"z.	c #7C7A7F",
"A.	c #26444F",
"B.	c #7B7D7E",
"C.	c #B1B1B1",
"D.	c #C3C3C3",
"E.	c #CFCFCF",
"F.	c #BBBABA",
"G.	c #6C6D6E",
"H.	c #6A6A6B",
"I.	c #BCBABB",
"J.	c #726E70",
"K.	c #676567",
"L.	c #666566",
"M.	c #736F6F",
"N.	c #B5B4B4",
"O.	c #686769",
"P.	c #6A696B",
"Q.	c #CECECE",
"R.	c #C1C1C1",
"S.	c #6B6F71",
"T.	c #26444E",
"U.	c #868788",
"V.	c #B7B9B7",
"W.	c #7D7C80",
"X.	c #2B4953",
"Y.	c #7A7D7E",
"Z.	c #B0B0B0",
"`.	c #C7C7C7",
" +	c #E1E1E1",
".+	c #BEBCBB",
"++	c #27444F",
"@+	c #2A464E",
"#+	c #BCB9B9",
"$+	c #A8A8A8",
"%+	c #686363",
"&+	c #273D46",
"*+	c #294048",
"=+	c #676261",
"-+	c #E4E4E4",
";+	c #B2AFAF",
">+	c #253E45",
",+	c #2A4048",
"'+	c #C2C1C0",
")+	c #DFDFDF",
"!+	c #868789",
"~+	c #B7B8B7",
"{+	c #817D7F",
"]+	c #3F484D",
"^+	c #807E7D",
"/+	c #C9C9C9",
"(+	c #E2E2E2",
"_+	c #BEBDBC",
":+	c #2C4853",
"<+	c #27434D",
"[+	c #C0BEBD",
"}+	c #2A4049",
"|+	c #263D46",
"1+	c #676262",
"2+	c #B3B1B1",
"3+	c #294148",
"4+	c #C4C2C2",
"5+	c #C8C8C8",
"6+	c #707070",
"7+	c #8A8889",
"8+	c #7C7B7F",
"9+	c #24424D",
"0+	c #7A7C7C",
"a+	c #CCCCCC",
"b+	c #BFBDBD",
"c+	c #3A484F",
"d+	c #3B484E",
"e+	c #C1BFBE",
"f+	c #364146",
"g+	c #354045",
"h+	c #696262",
"i+	c #BDBCBC",
"j+	c #B6B4B4",
"k+	c #364145",
"l+	c #374045",
"m+	c #C6C4C4",
"n+	c #6A6D70",
"o+	c #24434D",
"p+	c #B0AEAE",
"q+	c #ABAAA8",
"r+	c #B0AFAE",
"s+	c #CDCDCD",
"t+	c #C1C0BF",
"u+	c #535658",
"v+	c #525557",
"w+	c #C2C0C0",
"x+	c #B2B2B2",
"y+	c #6D6969",
"z+	c #494B4D",
"A+	c #494A4D",
"B+	c #BDBCBD",
"C+	c #B8B7B7",
"D+	c #C7C6C6",
"E+	c #AFADAC",
"F+	c #B2B0AF",
"G+	c #797979",
"H+	c #C4C4C4",
"I+	c #6C696A",
"J+	c #656363",
"K+	c #BCBBBC",
"L+	c #CAC9C9",
"M+	c #AAA9A8",
"N+	c #9B9A9B",
"O+	c #A9A8A7",
"P+	c #B8B8B9",
"Q+	c #C8C7C7",
"R+	c #807F80",
"S+	c #817F80",
"T+	c #C9C8C8",
"U+	c #BABBBB",
"V+	c #615E5D",
"W+	c #2F3334",
"X+	c #2D3234",
"Y+	c #555150",
"Z+	c #C2C1C2",
"`+	c #706C6D",
" @	c #CDCCCC",
".@	c #CACACA",
"+@	c #A5A3A3",
"@@	c #9A9B9B",
"#@	c #ADABAB",
"$@	c #274550",
"%@	c #7B7E7F",
"&@	c #C6C4C3",
"*@	c #284650",
"=@	c #C7C5C4",
"-@	c #2F383B",
";@	c #263D44",
">@	c #263C45",
",@	c #2B373A",
"'@	c #BFBFBE",
")@	c #C0BFBF",
"!@	c #334046",
"~@	c #273E47",
"{@	c #CCCBCA",
"]@	c #6B7072",
"^@	c #27444E",
"/@	c #B7B9B8",
"(@	c #294753",
"_@	c #7A7C7E",
":@	c #D1D1D1",
"<@	c #C7C6C5",
"[@	c #2A4853",
"}@	c #284651",
"|@	c #CAC8C7",
"1@	c #302C29",
"2@	c #313333",
"3@	c #2F2F2F",
"4@	c #322F2E",
"5@	c #C2C1C1",
"6@	c #C1C0C0",
"7@	c #344248",
"8@	c #274048",
"9@	c #6A6E70",
"0@	c #87888A",
"a@	c #807C7E",
"b@	c #38494F",
"c@	c #CAC8C8",
"d@	c #3B4A4F",
"e@	c #CECCCA",
"f@	c #C1C1C0",
"g@	c #2E3D42",
"h@	c #2B434B",
"i@	c #2C434B",
"j@	c #2C3D43",
"k@	c #C4C4C3",
"l@	c #3D4345",
"m@	c #354146",
"n@	c #6E7070",
"o@	c #39494E",
"p@	c #888888",
"q@	c #838182",
"r@	c #4A5155",
"s@	c #828180",
"t@	c #D3D3D3",
"u@	c #CCCACA",
"v@	c #2A454E",
"w@	c #28434B",
"x@	c #D1CFCD",
"y@	c #30373B",
"z@	c #2A393E",
"A@	c #2D3C41",
"B@	c #2C3438",
"C@	c #C6C5C5",
"D@	c #3A4348",
"E@	c #293C43",
"F@	c #757475",
"G@	c #4A5256",
"H@	c #B9B9B8",
"I@	c #D4D4D4",
"J@	c #7A7674",
"K@	c #D4D4D3",
"L@	c #332011",
"M@	c #39250F",
"N@	c #38230F",
"O@	c #332010",
"P@	c #797675",
"Q@	c #6F6C6C",
"R@	c #D6D5D5",
"S@	c #E0E0E0",
"T@	c #B9B8B9",
"U@	c #E6E6E6",
"V@	c #B3B4B4",
"W@	c #CCCCCE",
"X@	c #D1D1D3",
"Y@	c #CBCCCD",
"Z@	c #8E8E8E",
"`@	c #8F9090",
" #	c #CCCDCF",
".#	c #C6C7C8",
"+#	c #59534E",
"@#	c #342111",
"##	c #342011",
"$#	c #65605C",
"%#	c #C8CACB",
"&#	c #D0D1D3",
"*#	c #C9CACB",
"=#	c #8A8B8B",
"-#	c #949595",
";#	c #CDCECF",
">#	c #CACACC",
",#	c #B3B3B3",
"'#	c #E5E5E5",
")#	c #BABABA",
"!#	c #848484",
"~#	c #868686",
"{#	c #858585",
"]#	c #A0A0A3",
"^#	c #9E9DA1",
"/#	c #A0A0A4",
"(#	c #9B999D",
"_#	c #99979B",
":#	c #9C9A9E",
"<#	c #9E9EA1",
"[#	c #C2C2C2",
"}#	c #7D7D7D",
"|#	c #9E9DA3",
"1#	c #7F7F7F",
"2#	c #BEBEBE",
"3#	c #9A9A9B",
"4#	c #9F9FA3",
"5#	c #97979A",
"6#	c #BFBFBF",
"7#	c #F5F5F5",
"8#	c #936E4B",
"9#	c #6E431A",
"                                                . + @ #                         ",
"                                                  # #                           ",
"                                                                                ",
"                                                                                ",
"                                                                                ",
"                                      $ %                                       ",
"                                  & * = - ; >                                   ",
"                                , ' ) ! ! ~ { ]                                 ",
"                            ^ ' / ! ! ! ! ! ( - ; _                             ",
"                          : < [ ! ! ! ! ! ! ! ! } | 1                           ",
"                  2 3 4 | 5 ! 6 7 ( 8 ~ 9 0 a 0 b ! c d e                       ",
"  f g g h h h h g i j k [ ! ! l m n o p q r s t ! ! ! ~ u d v h w h g h w x y   ",
"    z A B C D E | | F ! ! ! ! G H 9 I I J K L M N ! ! ! ! O * P B B B A B Q     ",
"    R S T U V c W ( X X X X X X X X X X X X X X X X X X X X ) ' Y Z S ` S  .    ",
"    ..T ` T +.@.#.#.#.#.#.#.#.#.#.#.#.#.#.#.#.#.#.#.#.#.#.#.#.#.$.%.S &.` *.    ",
"    =.-.-.-.-.-.;.;.>.,.'.).).).'.!.~.).~.!.'.).).).'.,.).{.;.-.-.-.-.-.-.].    ",
"    ^././././././.(._._._._._._._._._._._._._._._._._._._._.:./././././.<...    ",
"    [.v }.E E E E C |.1.2.3.4.|.1.&.5.3.3.3.U 1.6.3.7.8.1.2.9.E E E E 0.a.b.    ",
"    c.].U d.e.f.U ` 0 g.0 h.i.j.g.k.l.m.m.;.n.g.o.p.q.r.s.t.&.Z u.e.v.` w.x.    ",
"    c.].y.z.A.B.6.C.D.E.F.G.H.I.E.].J.K.L.M.&...N.O.P.1.Q.R.C.U S.T.U.` w.x.    ",
"    c.].V.W.X.Y.6.Z.`. +.+++@+#+ +$+%+&+*+=+N.-+;+>+,+'+)+`.C.U S.X.!+` w.x.    ",
"    c.].~+{+]+^+6.Z./+(+_+:+<+[+ +$+%+}+|+1+Z -+2+3+&+4+)+5+C.U 6+]+7+` w.x.    ",
"    c.].V.8+9+0+6.Z.a+(+b+c+d+e+ +=.%+f+g+h+i+-+j+k+l+m+)+`.C.U n+o+U.` w.x.    ",
"    c.].U p+q+r+U Z.s+(+t+u+v+w+ +x+y+z+A+%+B+-+C+z+A+D+)+`.C.U E+q+F+` w.x.    ",
"    c.].U U U U U Z.E.(+R.G+G+H+ +S G+I+J+m.8.-+K+m.m.L+)+5+C.U U U U ` w.x.    ",
"    c.].U M+N+O+P+Z...(+Q+R+S+T+ +U+V+W+X+Y+1.-+Z+`+`+ @)+.@C.Z +@@@#@` w.x.    ",
"    c.].V.8+$@%@6.Z...(+&@T.*@=@ +8.-@;@>@,@'@-+)@!@~@{@)+s+C.U ]@^@!+` w.x.    ",
"    c.]./@W.(@_@6.Z.:@(+<@[@}@|@ +'@1@2@3@4@5@-+6@7@8@Q.)+Q.C.U 9@[@0@` w.x.    ",
"    c.].~+a@b@l.6.Z.R (+c@d@d@e@ +f@g@h@i@j@k@-+5@l@m@:@)+..C.U n@o@p@` w.x.    ",
"    c.].~+q@r@s@6.Z.t@(+u@v@w@x@ +f@y@z@A@B@D+-+C@D@E@R )+:@C.U F@G@3.` w.x.    ",
"    c.w.U H@6.U U Z.I@(+Q.J@J@K@(+5@L@M@N@O@L+-+5+P@Q@R@S@R C.U T@6.6.` w.U@    ",
"     +A U U U U U V@W@X@Y@Z@`@ #X@.#+#@###$#%#&#*#=#-#;#&#>#,#U U U U ` A '#    ",
"    )#!#~#{#~#!#~#g ]#]#]#x ^#]#]#/#(#_#_#:#]#]#]#x <#]#]#]#!.{#~#~#{#~#!#[#    ",
"    ` l.l.}#l.l.~#|#|#|#|#|#|#|#|#|#|#|#|#|#|#|#|#|#|#|#|#|#|#!#}#1#l.1#}#2#    ",
"    S 1#}#1#}#l.3#4#4#4#4#4#4#4#4#4#4#4#4#4#4#4#4#4#4#4#4#4#4#5#}#l.l.l.l.6#    ",
"      7#7#7#7#7#                                                7#7#7#7#7#      ",
"                                        8#8#                                    ",
"                                      8#9#9#8#                                  ",
"                                      8#9#9#8#                                  ",
"                                        8#8#                                    "};
