/* XPM */
static char * C:\Users\Akinori Sasada\Desktop\42\42cursus\solong\assets\ground_xpm[] = {
"40 40 12 1",
" 	c #9D7855",
".	c #865F3D",
"+	c #774E29",
"@	c #7F5734",
"#	c #997451",
"$	c #96714E",
"%	c #825B38",
"&	c #6E431A",
"*	c #9C7754",
"=	c #8D6745",
"-	c #88623F",
";	c #936E4B",
"                        .+@#            ",
"                         ##             ",
"                                        ",
"                                        ",
"                                        ",
"                                        ",
"                                        ",
"                                        ",
"                                        ",
"                                        ",
"         $%                             ",
"        $&&%                            ",
"        *=&$                            ",
"         *$                             ",
"                                        ",
"                                        ",
"                                        ",
"                                        ",
"                                        ",
"                                        ",
"                                        ",
"                            -           ",
"                           -&-          ",
"                           -&-          ",
"                            -           ",
"                                        ",
"                                        ",
"   $*                                   ",
"  $&=*                                  ",
"  %&&$                                  ",
"   %$                                   ",
"                                        ",
"                                        ",
"                                        ",
"                                        ",
"                                        ",
"                    ;;                  ",
"                   ;&&;                 ",
"                   ;&&;                 ",
"                    ;;                  "};
