/* XPM */
static char * C:\Users\Akinori Sasada\Desktop\42\42cursus\solong\assets\walls_xpm[] = {
"40 40 37 1",
" 	c #9D7855",
".	c #8F724D",
"+	c #255306",
"@	c #75673D",
"#	c #865F3D",
"$	c #774E29",
"%	c #7F5734",
"&	c #997451",
"*	c #74673C",
"=	c #3F571A",
"-	c #6B6437",
";	c #505C26",
">	c #96714E",
",	c #615727",
"'	c #7F6B43",
")	c #6E431A",
"!	c #8E714C",
"~	c #585E2B",
"{	c #335512",
"]	c #606030",
"^	c #4A5A22",
"/	c #265306",
"(	c #2A5106",
"_	c #43561B",
":	c #454005",
"<	c #6A6436",
"[	c #3E571A",
"}	c #825B38",
"|	c #3B4805",
"1	c #523104",
"2	c #592304",
"3	c #344C06",
"4	c #68572F",
"5	c #5F2E14",
"6	c #683B21",
"7	c #936D4D",
"8	c #64371D",
"               .+++++++@#$%&            ",
"               *++++++++@&&             ",
"              @++++++++++               ",
"             =++++++++++++              ",
"            ++++++++++++++@             ",
"           +++++++++++++++++.           ",
"          +++++++++++++++++++@          ",
"          ++++++++++++++++++++-         ",
"          +++++++++++++++++++++;        ",
"            ;++++++++++++++++++++.      ",
"         >,++++++++++++++++++++++'      ",
"        >)+++++++++++++++++++++++.      ",
"        !++++++++++++++++++++;*.        ",
"       ~++++++++++++++++{++++.          ",
"      -++++++++++++++++++++++++         ",
"      ++++++++++++++++++++++++++@       ",
"      ++++++++++++++++++++++++++++;     ",
"      -++++++++++++++++++++++++++++     ",
"      .++++++++++++++++++++++++++++     ",
"     -+++++++++++++++++++++++++++].     ",
"    ~++++++++++++++++++++++++++;        ",
"   ++++++++++++++++++++++++++++++^      ",
"  =++++++++++++++++++++++++++++++++;    ",
";++++++++++++++++++++++++++++++++++++@  ",
"++++++++++++++++++++++++++++++++++++++++",
"++++++++++++++++++++++++++++++++++++++++",
"+++++++++++++++/++++++++++++++++++++++++",
"++++++++++++++++++++++++++(+++++++++++++",
"++++_+~*.  ~++++++::+++++++      .*<<[++",
"  }))>     .++++|122+++++++.            ",
"   }>       @++:222223+++++4            ",
"              522222223++++1            ",
"              222222222:++:2            ",
"              222222222222226           ",
"              222222222222222           ",
"             7222222222222222           ",
"             8222222222222222           ",
"             2222222222222222           ",
"             2222222222222222           ",
"             2222222222222222           "};
